<?xml version="1.0" standalone="no"?>
<!DOCTYPE svg PUBLIC "-//W3C//DTD SVG 20010904//EN"
 "http://www.w3.org/TR/2001/REC-SVG-20010904/DTD/svg10.dtd">
<svg version="1.0" xmlns="http://www.w3.org/2000/svg"
 width="512.000000pt" height="512.000000pt" viewBox="0 0 512.000000 512.000000"
 preserveAspectRatio="xMidYMid meet">
<metadata>
Created by potrace 1.14, written by Peter Selinger 2001-2017
</metadata>
<g transform="translate(0.000000,512.000000) scale(0.100000,-0.100000)"
fill="#000000" stroke="none">
<path d="M2372 4833 c-564 -62 -1030 -355 -1336 -842 -102 -162 -200 -424
-231 -616 -14 -94 -16 -117 -19 -260 -6 -331 68 -621 235 -915 31 -54 99 -156
131 -195 75 -90 88 -108 86 -110 -2 -2 -20 -6 -40 -9 -21 -3 -57 -10 -80 -15
-32 -8 -44 -7 -47 2 -2 7 -19 27 -37 45 -40 40 -76 42 -181 6 -301 -103 -506
-241 -579 -389 -25 -52 -29 -71 -29 -145 0 -73 4 -93 28 -139 15 -30 39 -67
52 -83 14 -16 25 -34 25 -39 0 -6 -17 -45 -37 -87 -33 -67 -38 -86 -37 -147 0
-51 6 -81 21 -110 76 -143 298 -225 603 -221 162 2 208 14 350 86 127 64 195
76 330 57 25 -4 68 -9 95 -12 28 -3 66 -8 85 -11 50 -7 112 -12 210 -19 47 -3
114 -7 150 -10 36 -2 112 -7 170 -10 58 -3 116 -8 130 -10 14 -2 50 -7 80 -10
189 -22 354 -81 570 -203 168 -95 313 -133 530 -137 131 -3 192 2 338 29 101
19 254 90 334 153 25 21 63 67 84 103 38 63 38 66 40 173 3 138 15 160 129
218 113 58 143 76 205 128 152 128 202 238 171 380 -38 177 -283 352 -666 474
-71 22 -183 53 -225 62 -8 2 -27 6 -41 10 l-26 6 62 94 c295 447 370 1014 202
1518 -116 346 -327 638 -622 862 -334 253 -801 383 -1213 338z"/>
</g>
</svg>
